<svg xmlns="http://www.w3.org/2000/svg" version="1.0" preserveAspectRatio="xMidYMid meet" viewBox="106.27 495.37 571.73 177.52">

<g transform="translate(0.000000,1168.000000) scale(0.100000,-0.100000)" fill="#8B5CF6" stroke="none">
<path d="M2228 6710 c-62 -34 -76 -74 -84 -248 -4 -84 -4 -152 -1 -152 13 0 249 184 262 204 8 12 17 39 20 61 16 107 -101 187 -197 135z"/>
<path d="M1545 6397 c-61 -20 -97 -42 -131 -79 -42 -44 -56 -73 -92 -193 -16 -55 -74 -244 -127 -420 -136 -446 -137 -452 -130 -509 17 -136 123 -234 265 -243 73 -5 37 -17 620 207 74 28 184 70 244 93 152 57 202 109 226 239 22 113 -39 340 -128 480 -21 32 -40 58 -43 58 -10 0 -159 -111 -159 -118 0 -4 13 -26 29 -50 85 -124 128 -317 83 -372 -17 -21 -27 -24 -73 -23 -159 4 -371 134 -481 295 -111 164 -151 389 -76 429 47 25 189 -15 297 -85 l70 -45 51 71 c28 39 54 76 57 83 2 8 -21 31 -57 55 -146 99 -351 157 -445 127z m34 -860 c68 -71 222 -187 249 -187 6 0 13 -4 16 -9 3 -5 -31 -23 -76 -39 -46 -17 -155 -58 -242 -91 -87 -34 -171 -61 -186 -61 -26 0 -62 30 -73 61 -5 16 102 397 149 528 3 10 20 -11 47 -54 23 -39 76 -105 116 -148z"/>
<path d="M2509 6325 c-38 -21 -59 -58 -59 -106 0 -33 6 -47 33 -74 42 -42 77 -51 124 -34 50 20 75 56 75 114 1 43 -3 52 -35 82 -41 37 -91 44 -138 18z"/>
<path d="M5070 6147 l-65 -32 -3 -78 -3 -78 -133 3 c-131 3 -133 3 -175 -25 -24 -16 -50 -42 -59 -58 -10 -16 -20 -29 -23 -29 -3 0 -10 24 -15 53 l-9 52 -74 3 -74 3 6 -53 c4 -29 7 -183 7 -341 l0 -288 78 3 77 3 5 225 c5 246 7 254 68 292 28 17 53 21 181 24 l147 4 2 -195 c3 -203 7 -228 48 -283 41 -53 97 -76 184 -77 107 0 110 2 110 78 l0 64 -55 -5 c-60 -5 -95 10 -116 49 -13 25 -21 287 -11 338 l7 33 85 2 85 1 3 29 c2 16 1 44 -3 63 l-6 33 -84 0 -83 0 -7 110 c-5 71 -12 110 -19 109 -6 0 -40 -15 -76 -32z"/>
<path d="M3830 5967 c-177 -49 -273 -238 -229 -449 47 -226 313 -325 475 -176 l44 41 0 -52 0 -51 75 0 75 0 0 58 c0 31 1 184 2 340 l3 282 -77 0 -78 0 0 -50 c0 -27 -2 -50 -5 -50 -3 0 -20 17 -38 37 -57 64 -161 94 -247 70z m204 -155 c52 -36 78 -88 84 -171 10 -149 -62 -241 -188 -241 -92 0 -150 51 -170 146 -22 103 11 223 71 267 59 42 139 42 203 -1z"/>
<path d="M3073 5945 c-29 -15 -64 -40 -78 -57 -14 -17 -27 -29 -29 -27 -2 2 -8 24 -13 49 l-9 45 -78 3 -79 3 8 -28 c4 -15 10 -234 12 -485 l4 -458 80 0 79 0 0 203 0 202 26 -33 c14 -17 47 -44 72 -60 40 -23 58 -27 123 -27 65 0 85 5 135 30 70 36 124 102 149 182 26 81 18 230 -16 303 -56 121 -128 172 -253 178 -72 3 -87 1 -133 -23z m162 -121 c131 -62 132 -345 2 -407 -73 -35 -171 -16 -219 41 -39 47 -51 94 -46 181 8 138 62 201 171 201 33 0 74 -7 92 -16z"/>
<path d="M5370 5948 c0 -6 45 -111 99 -232 180 -401 185 -413 170 -449 -30 -78 -103 -136 -192 -152 -20 -4 -37 -11 -37 -17 0 -19 23 -103 31 -112 10 -11 102 11 154 37 99 49 151 112 206 250 18 45 89 213 157 372 68 160 126 296 129 303 4 9 -15 12 -74 12 l-80 0 -48 -122 c-81 -212 -149 -368 -156 -360 -6 7 -137 332 -174 435 l-18 47 -83 0 c-58 0 -84 -4 -84 -12z"/>
<path d="M6166 5858 c-3 -57 -5 -170 -3 -253 4 -163 15 -205 65 -258 49 -52 99 -72 182 -71 87 0 142 23 184 76 l26 33 0 -53 0 -54 68 3 c37 2 73 5 80 7 9 3 12 80 12 338 l0 334 -80 0 -80 0 0 -204 c0 -209 -6 -248 -42 -296 -45 -58 -135 -77 -195 -40 -56 33 -58 44 -61 303 l-4 237 -73 0 -73 0 -6 -102z"/>
</g>
</svg>